<?xml version="1.0" encoding="UTF-8" standalone="no"?>
<!-- Created with Inkscape (http://www.inkscape.org/) -->

<svg
   width="1080"
   height="1080"
   viewBox="0 0 285.74999 285.75"
   version="1.1"
   id="svg1"
   inkscape:version="1.4.2 (ebf0e940d0, 2025-05-08)"
   sodipodi:docname="Celestial.svg"
   xmlns:inkscape="http://www.inkscape.org/namespaces/inkscape"
   xmlns:sodipodi="http://sodipodi.sourceforge.net/DTD/sodipodi-0.dtd"
   xmlns:xlink="http://www.w3.org/1999/xlink"
   xmlns="http://www.w3.org/2000/svg"
   xmlns:svg="http://www.w3.org/2000/svg">
  <sodipodi:namedview
     id="namedview1"
     pagecolor="#ffffff"
     bordercolor="#000000"
     borderopacity="0.25"
     inkscape:showpageshadow="2"
     inkscape:pageopacity="0.0"
     inkscape:pagecheckerboard="0"
     inkscape:deskcolor="#d1d1d1"
     inkscape:document-units="mm"
     inkscape:zoom="0.71268238"
     inkscape:cx="395.68819"
     inkscape:cy="528.9874"
     inkscape:window-width="1920"
     inkscape:window-height="1011"
     inkscape:window-x="0"
     inkscape:window-y="0"
     inkscape:window-maximized="1"
     inkscape:current-layer="svg1" />
  <defs
     id="defs1">
    <linearGradient
       id="linearGradient3"
       inkscape:collect="always">
      <stop
         style="stop-color:#000099;stop-opacity:1;"
         offset="0"
         id="stop3" />
      <stop
         style="stop-color:#6666ff;stop-opacity:1;"
         offset="1"
         id="stop4" />
    </linearGradient>
    <inkscape:path-effect
       effect="spiro"
       id="path-effect3"
       is_visible="true"
       lpeversion="1" />
    <inkscape:path-effect
       effect="spiro"
       id="path-effect2"
       is_visible="true"
       lpeversion="1" />
    <linearGradient
       id="linearGradient1"
       inkscape:collect="always">
      <stop
         style="stop-color:#ffe066;stop-opacity:1;"
         offset="0"
         id="stop1" />
      <stop
         style="stop-color:#e5b700;stop-opacity:1;"
         offset="1"
         id="stop2" />
    </linearGradient>
    <linearGradient
       inkscape:collect="always"
       xlink:href="#linearGradient1"
       id="linearGradient2"
       x1="4.8425998"
       y1="129.11623"
       x2="281.14362"
       y2="129.11623"
       gradientUnits="userSpaceOnUse" />
    <linearGradient
       inkscape:collect="always"
       xlink:href="#linearGradient3"
       id="linearGradient4"
       x1="55.267726"
       y1="127.93693"
       x2="270.69542"
       y2="127.93693"
       gradientUnits="userSpaceOnUse" />
  </defs>
  <path
     style="opacity:1;fill:url(#linearGradient4);fill-opacity:1;stroke-width:0.264583"
     d="m 181.42965,136.57323 c -4.15798,-0.8202 -8.4728,-0.89416 -12.5109,-2.18073 -4.64763,-1.48078 -8.73595,-4.55877 -11.62046,-8.49231 -2.88452,-3.93354 -4.58032,-8.69271 -5.0514,-13.54773 -0.94217,-9.71004 3.00488,-19.468694 9.24816,-26.964961 5.38987,-6.471582 12.4265,-11.461474 20.04878,-15.043779 7.62228,-3.582306 15.8309,-5.796825 24.12997,-7.231222 17.9806,-3.107736 36.70051,-2.567077 54.2012,2.598751 0.97961,0.289159 1.95953,0.593552 2.97,0.7425 0.86037,0.126822 1.74028,0.139075 2.59875,0 1.49297,-0.241866 2.92406,-0.964484 3.91603,-2.106178 0.99196,-1.141693 1.512,-2.710306 1.28148,-4.205071 -0.16593,-1.075914 -0.69993,-2.068872 -1.37987,-2.919054 -0.67993,-0.850182 -1.50452,-1.571798 -2.33263,-2.278447 C 236.77631,29.215176 194.95774,17.600403 155.925,24.5025 132.00533,28.732177 109.22007,39.721792 91.49762,56.333702 73.775168,72.945612 61.262782,95.187137 56.957682,119.09335 c -2.745959,15.24831 -2.176341,31.11631 1.934526,46.05458 4.110867,14.93828 11.78134,28.9188 22.382952,40.21734 10.601611,11.29854 24.13445,19.87237 38.96396,24.35979 14.8295,4.48743 30.92496,4.84387 45.86606,0.74329 10.54328,-2.8936 20.54701,-8.02389 28.60082,-15.4178 8.05381,-7.39391 14.09166,-17.09999 16.5129,-27.76166 2.42124,-10.66167 1.09464,-22.24826 -4.25602,-31.78262 -5.35066,-9.53437 -14.80678,-16.81715 -25.53323,-18.93304 z"
     id="path2"
     inkscape:path-effect="#path-effect3"
     inkscape:original-d="m 181.42965,136.57323 c 2.56156,-31.07684 -8.46435,-1.20632 -12.5109,-2.18073 -4.04655,-0.97441 -5.1962,-32.79375 -7.4237,-49.005001 -2.2275,-16.211251 30.07082,-14.849999 44.17875,-22.275001 14.10794,-7.424999 35.88663,1.7325 54.2012,2.598751 18.31455,0.866251 2.10375,0.495001 2.97,0.7425 0.86625,0.247499 1.60875,0 2.59875,0 0.99,0 3.2175,-4.455001 5.19751,-6.311249 1.97998,-1.85625 -2.35128,-3.2175 -3.7125,-5.197501 C 265.5675,52.965 192.92625,34.65 155.925,24.5025 118.92375,14.355 89.875182,87.537104 56.957682,119.09335 c -32.917499,31.55625 72.960358,74.27597 109.147498,111.375 36.18715,37.09903 5.09321,-0.44307 15.32447,-93.89512 z"
     transform="matrix(1.1731461,0,0,1.1731461,-57.040869,-26.446774)" />
  <g
     inkscape:label="Layer 1"
     inkscape:groupmode="layer"
     id="layer1">
    <path
       sodipodi:type="star"
       style="opacity:1;fill:url(#linearGradient2);stroke-width:0.264583"
       id="path1"
       inkscape:flatsided="false"
       sodipodi:sides="5"
       sodipodi:cx="142.875"
       sodipodi:cy="142.875"
       sodipodi:r1="145.26054"
       sodipodi:r2="79.893295"
       sodipodi:arg1="0.94510898"
       sodipodi:arg2="1.5734275"
       inkscape:rounded="0.165"
       inkscape:randomized="0"
       d="m 227.9475,260.6175 c -12.47878,9.01629 -69.88753,-37.80897 -85.28271,-37.84948 -15.39519,-0.0405 -73.049556,46.482 -85.480712,37.40017 -12.431155,-9.08184 14.362035,-78.15061 9.643187,-92.80481 C 62.108416,152.70917 0.04670137,112.25285 4.8425998,97.623678 9.6384982,82.994506 83.606352,87.132921 96.085128,78.11663 108.5639,69.100339 127.86202,-2.4255485 143.25721,-2.385041 c 15.39518,0.040508 34.31664,71.666958 46.74779,80.748791 12.43116,9.081834 86.41977,5.332721 91.13862,19.986929 4.71885,14.654211 -57.5549,54.783371 -62.3508,69.412541 -4.7959,14.62918 21.63345,83.83799 9.15468,92.85428 z"
       inkscape:transform-center-x="6.3105512"
       inkscape:transform-center-y="-3.9056739"
       transform="matrix(0.68704171,-0.09239645,0.09706838,0.72178135,75.53756,102.73398)" />
  </g>
</svg>
