<?xml version="1.0" encoding="UTF-8" standalone="no"?>
<!-- Created with Inkscape (http://www.inkscape.org/) -->

<svg
   width="1080"
   height="1080"
   viewBox="0 0 285.74999 285.75"
   version="1.1"
   id="svg1"
   inkscape:version="1.4.2 (ebf0e940d0, 2025-05-08)"
   sodipodi:docname="Celestial-full.svg"
   inkscape:export-filename="Celestial-full.png"
   inkscape:export-xdpi="96"
   inkscape:export-ydpi="96"
   xmlns:inkscape="http://www.inkscape.org/namespaces/inkscape"
   xmlns:sodipodi="http://sodipodi.sourceforge.net/DTD/sodipodi-0.dtd"
   xmlns:xlink="http://www.w3.org/1999/xlink"
   xmlns="http://www.w3.org/2000/svg"
   xmlns:svg="http://www.w3.org/2000/svg">
  <sodipodi:namedview
     id="namedview1"
     pagecolor="#ffffff"
     bordercolor="#000000"
     borderopacity="0.25"
     inkscape:showpageshadow="2"
     inkscape:pageopacity="0.0"
     inkscape:pagecheckerboard="0"
     inkscape:deskcolor="#d1d1d1"
     inkscape:document-units="mm"
     inkscape:zoom="0.50394254"
     inkscape:cx="357.18358"
     inkscape:cy="488.15089"
     inkscape:window-width="1920"
     inkscape:window-height="1011"
     inkscape:window-x="0"
     inkscape:window-y="0"
     inkscape:window-maximized="1"
     inkscape:current-layer="svg1" />
  <defs
     id="defs1">
    <linearGradient
       id="linearGradient3"
       inkscape:collect="always">
      <stop
         style="stop-color:#000099;stop-opacity:1;"
         offset="0"
         id="stop3" />
      <stop
         style="stop-color:#6666ff;stop-opacity:1;"
         offset="1"
         id="stop4" />
    </linearGradient>
    <inkscape:path-effect
       effect="spiro"
       id="path-effect3"
       is_visible="true"
       lpeversion="1" />
    <inkscape:path-effect
       effect="spiro"
       id="path-effect2"
       is_visible="true"
       lpeversion="1" />
    <linearGradient
       id="linearGradient1"
       inkscape:collect="always">
      <stop
         style="stop-color:#ffe066;stop-opacity:1;"
         offset="0"
         id="stop1" />
      <stop
         style="stop-color:#e5b700;stop-opacity:1;"
         offset="1"
         id="stop2" />
    </linearGradient>
    <linearGradient
       inkscape:collect="always"
       xlink:href="#linearGradient1"
       id="linearGradient2"
       x1="4.8425998"
       y1="129.11623"
       x2="281.14362"
       y2="129.11623"
       gradientUnits="userSpaceOnUse" />
    <linearGradient
       inkscape:collect="always"
       xlink:href="#linearGradient3"
       id="linearGradient4"
       x1="55.267726"
       y1="127.93693"
       x2="270.69542"
       y2="127.93693"
       gradientUnits="userSpaceOnUse" />
    <linearGradient
       inkscape:collect="always"
       xlink:href="#linearGradient1"
       id="linearGradient5"
       gradientUnits="userSpaceOnUse"
       x1="4.8425998"
       y1="129.11623"
       x2="281.14362"
       y2="129.11623" />
  </defs>
  <path
     style="opacity:1;fill:url(#linearGradient4);fill-opacity:1;stroke-width:0.264583"
     d="m 181.42965,136.57323 c -4.15798,-0.8202 -8.4728,-0.89416 -12.5109,-2.18073 -4.64763,-1.48078 -8.73595,-4.55877 -11.62046,-8.49231 -2.88452,-3.93354 -4.58032,-8.69271 -5.0514,-13.54773 -0.94217,-9.71004 3.00488,-19.468694 9.24816,-26.964961 5.38987,-6.471582 12.4265,-11.461474 20.04878,-15.043779 7.62228,-3.582306 15.8309,-5.796825 24.12997,-7.231222 17.9806,-3.107736 36.70051,-2.567077 54.2012,2.598751 0.97961,0.289159 1.95953,0.593552 2.97,0.7425 0.86037,0.126822 1.74028,0.139075 2.59875,0 1.49297,-0.241866 2.92406,-0.964484 3.91603,-2.106178 0.99196,-1.141693 1.512,-2.710306 1.28148,-4.205071 -0.16593,-1.075914 -0.69993,-2.068872 -1.37987,-2.919054 -0.67993,-0.850182 -1.50452,-1.571798 -2.33263,-2.278447 C 236.77631,29.215176 194.95774,17.600403 155.925,24.5025 132.00533,28.732177 109.22007,39.721792 91.49762,56.333702 73.775168,72.945612 61.262782,95.187137 56.957682,119.09335 c -2.745959,15.24831 -2.176341,31.11631 1.934526,46.05458 4.110867,14.93828 11.78134,28.9188 22.382952,40.21734 10.601611,11.29854 24.13445,19.87237 38.96396,24.35979 14.8295,4.48743 30.92496,4.84387 45.86606,0.74329 10.54328,-2.8936 20.54701,-8.02389 28.60082,-15.4178 8.05381,-7.39391 14.09166,-17.09999 16.5129,-27.76166 2.42124,-10.66167 1.09464,-22.24826 -4.25602,-31.78262 -5.35066,-9.53437 -14.80678,-16.81715 -25.53323,-18.93304 z"
     id="path2"
     inkscape:path-effect="#path-effect3"
     inkscape:original-d="m 181.42965,136.57323 c 2.56156,-31.07684 -8.46435,-1.20632 -12.5109,-2.18073 -4.04655,-0.97441 -5.1962,-32.79375 -7.4237,-49.005001 -2.2275,-16.211251 30.07082,-14.849999 44.17875,-22.275001 14.10794,-7.424999 35.88663,1.7325 54.2012,2.598751 18.31455,0.866251 2.10375,0.495001 2.97,0.7425 0.86625,0.247499 1.60875,0 2.59875,0 0.99,0 3.2175,-4.455001 5.19751,-6.311249 1.97998,-1.85625 -2.35128,-3.2175 -3.7125,-5.197501 C 265.5675,52.965 192.92625,34.65 155.925,24.5025 118.92375,14.355 89.875182,87.537104 56.957682,119.09335 c -32.917499,31.55625 72.960358,74.27597 109.147498,111.375 36.18715,37.09903 5.09321,-0.44307 15.32447,-93.89512 z"
     transform="matrix(0.97348032,0,0,0.97348032,-23.802043,-21.945618)" />
  <g
     inkscape:label="Layer 1"
     inkscape:groupmode="layer"
     id="layer1">
    <path
       sodipodi:type="star"
       style="opacity:1;fill:url(#linearGradient2);stroke-width:0.264583"
       id="path1"
       inkscape:flatsided="false"
       sodipodi:sides="5"
       sodipodi:cx="142.875"
       sodipodi:cy="142.875"
       sodipodi:r1="145.26054"
       sodipodi:r2="79.893295"
       sodipodi:arg1="0.94510898"
       sodipodi:arg2="1.5734275"
       inkscape:rounded="0.165"
       inkscape:randomized="0"
       d="m 227.9475,260.6175 c -12.47878,9.01629 -69.88753,-37.80897 -85.28271,-37.84948 -15.39519,-0.0405 -73.049556,46.482 -85.480712,37.40017 -12.431155,-9.08184 14.362035,-78.15061 9.643187,-92.80481 C 62.108416,152.70917 0.04670137,112.25285 4.8425998,97.623678 9.6384982,82.994506 83.606352,87.132921 96.085128,78.11663 108.5639,69.100339 127.86202,-2.4255485 143.25721,-2.385041 c 15.39518,0.040508 34.31664,71.666958 46.74779,80.748791 12.43116,9.081834 86.41977,5.332721 91.13862,19.986929 4.71885,14.654211 -57.5549,54.783371 -62.3508,69.412541 -4.7959,14.62918 21.63345,83.83799 9.15468,92.85428 z"
       inkscape:transform-center-x="5.2365152"
       inkscape:transform-center-y="-3.2409397"
       transform="matrix(0.57010937,-0.07667086,0.08054765,0.59893644,86.211955,85.248978)" />
  </g>
  <path
     style="font-weight:bold;font-size:63.5px;font-family:'Red Hat Display';-inkscape-font-specification:'Red Hat Display Bold';fill:#000089;stroke-width:0.264583"
     d="m 44.079862,285.75001 c -3.302,0 -6.371167,-0.5715 -9.2075,-1.7145 -2.836333,-1.18533 -5.334,-2.81517 -7.493,-4.8895 -2.116667,-2.11667 -3.767667,-4.55083 -4.953,-7.3025 -1.185333,-2.794 -1.778,-5.79967 -1.778,-9.017 0,-3.21733 0.592667,-6.20183 1.778,-8.9535 1.185333,-2.794 2.836333,-5.22817 4.953,-7.3025 2.159,-2.11667 4.656667,-3.7465 7.493,-4.8895 2.878667,-1.18533 5.947833,-1.778 9.2075,-1.778 2.370667,0 4.677833,0.3175 6.9215,0.9525 2.286,0.635 4.3815,1.54517 6.2865,2.7305 1.947333,1.18533 3.6195,2.62467 5.0165,4.318 l -5.2705,5.2705 c -1.651,-1.98967 -3.598333,-3.4925 -5.842,-4.5085 -2.243667,-1.016 -4.614333,-1.524 -7.112,-1.524 -2.201333,0 -4.233333,0.40217 -6.096,1.2065 -1.862667,0.762 -3.4925,1.86267 -4.8895,3.302 -1.397,1.397 -2.497667,3.048 -3.302,4.953 -0.762,1.905 -1.143,3.97933 -1.143,6.223 0,2.20133 0.381,4.2545 1.143,6.1595 0.804333,1.905 1.905,3.57717 3.302,5.0165 1.439333,1.397 3.1115,2.49767 5.0165,3.302 1.905,0.762 3.979333,1.143 6.223,1.143 2.455333,0 4.7625,-0.48683 6.9215,-1.4605 2.201333,-1.016 4.085167,-2.45533 5.6515,-4.318 l 5.1435,5.1435 c -1.397,1.60867 -3.069167,3.02683 -5.0165,4.2545 -1.905,1.18533 -3.979333,2.0955 -6.223,2.7305 -2.201333,0.635 -4.445,0.9525 -6.731,0.9525 z m 38.227029,-0.127 c -3.259667,0 -6.201833,-0.74083 -8.8265,-2.2225 -2.582333,-1.48167 -4.656667,-3.4925 -6.223,-6.0325 -1.524,-2.58233 -2.286,-5.461 -2.286,-8.636 0,-3.175 0.740833,-6.0325 2.2225,-8.5725 1.481667,-2.54 3.471333,-4.55083 5.969,-6.0325 2.497667,-1.524 5.291667,-2.286 8.382,-2.286 3.090333,0 5.820833,0.762 8.1915,2.286 2.413,1.524 4.318,3.59833 5.715,6.223 1.397,2.58233 2.0955,5.5245 2.0955,8.8265 v 1.9685 h -25.019 c 0.338667,1.60867 0.973667,3.02683 1.905,4.2545 0.931333,1.22767 2.116667,2.20133 3.556,2.921 1.439333,0.67733 2.9845,1.016 4.6355,1.016 1.524,0 2.963333,-0.23283 4.318,-0.6985 1.397,-0.46567 2.561167,-1.143 3.4925,-2.032 l 4.826,4.572 c -1.947333,1.524 -3.958167,2.64583 -6.0325,3.3655 -2.074333,0.71967 -4.3815,1.0795 -6.9215,1.0795 z m -9.8425,-19.8755 h 17.7165 c -0.296333,-1.524 -0.867833,-2.8575 -1.7145,-4.0005 -0.846667,-1.143 -1.883833,-2.032 -3.1115,-2.667 -1.185333,-0.67733 -2.497667,-1.016 -3.937,-1.016 -1.481667,0 -2.8575,0.3175 -4.1275,0.9525 -1.227667,0.635 -2.264833,1.524 -3.1115,2.667 -0.804333,1.143 -1.375833,2.49767 -1.7145,4.064 z m 30.797529,19.304 v -44.45 l 7.4295,-1.3335 v 45.7835 z m 30.41647,0.5715 c -3.25967,0 -6.20183,-0.74083 -8.8265,-2.2225 -2.58233,-1.48167 -4.65667,-3.4925 -6.223,-6.0325 -1.524,-2.58233 -2.286,-5.461 -2.286,-8.636 0,-3.175 0.74083,-6.0325 2.2225,-8.5725 1.48167,-2.54 3.47133,-4.55083 5.969,-6.0325 2.49767,-1.524 5.29167,-2.286 8.382,-2.286 3.09033,0 5.82083,0.762 8.1915,2.286 2.413,1.524 4.318,3.59833 5.715,6.223 1.397,2.58233 2.0955,5.5245 2.0955,8.8265 v 1.9685 h -25.019 c 0.33867,1.60867 0.97367,3.02683 1.905,4.2545 0.93133,1.22767 2.11667,2.20133 3.556,2.921 1.43933,0.67733 2.9845,1.016 4.6355,1.016 1.524,0 2.96333,-0.23283 4.318,-0.6985 1.397,-0.46567 2.56117,-1.143 3.4925,-2.032 l 4.826,4.572 c -1.94733,1.524 -3.95817,2.64583 -6.0325,3.3655 -2.07433,0.71967 -4.3815,1.0795 -6.9215,1.0795 z m -9.8425,-19.8755 h 17.7165 c -0.29633,-1.524 -0.86783,-2.8575 -1.7145,-4.0005 -0.84667,-1.143 -1.88383,-2.032 -3.1115,-2.667 -1.18533,-0.67733 -2.49767,-1.016 -3.937,-1.016 -1.48167,0 -2.8575,0.3175 -4.1275,0.9525 -1.22767,0.635 -2.26483,1.524 -3.1115,2.667 -0.80433,1.143 -1.37583,2.49767 -1.7145,4.064 z m 42.79897,19.939 c -2.921,0 -5.63033,-0.40217 -8.128,-1.2065 -2.49767,-0.80433 -4.65667,-1.9685 -6.477,-3.4925 l 3.81,-4.953 c 1.82033,1.35467 3.59833,2.37067 5.334,3.048 1.778,0.635 3.556,0.9525 5.334,0.9525 2.11667,0 3.83117,-0.381 5.1435,-1.143 1.31233,-0.80433 1.9685,-1.8415 1.9685,-3.1115 0,-1.016 -0.381,-1.82033 -1.143,-2.413 -0.762,-0.59267 -1.94733,-1.016 -3.556,-1.27 l -6.096,-0.889 c -3.25967,-0.46567 -5.715,-1.48167 -7.366,-3.048 -1.651,-1.60867 -2.4765,-3.70417 -2.4765,-6.2865 0,-2.032 0.52917,-3.78883 1.5875,-5.2705 1.10067,-1.524 2.64583,-2.70933 4.6355,-3.556 1.98967,-0.84667 4.318,-1.27 6.985,-1.27 2.37067,0 4.65667,0.33867 6.858,1.016 2.24367,0.67733 4.36033,1.7145 6.35,3.1115 l -3.6195,4.8895 c -1.82033,-1.143 -3.556,-1.9685 -5.207,-2.4765 -1.651,-0.55033 -3.32317,-0.8255 -5.0165,-0.8255 -1.778,0 -3.21733,0.35983 -4.318,1.0795 -1.05833,0.67733 -1.5875,1.60867 -1.5875,2.794 0,1.05833 0.381,1.88383 1.143,2.4765 0.762,0.55033 2.032,0.9525 3.81,1.2065 l 6.0325,0.889 c 3.25967,0.42333 5.73617,1.43933 7.4295,3.048 1.69333,1.56633 2.54,3.6195 2.54,6.1595 0,2.032 -0.61383,3.85233 -1.8415,5.461 -1.22767,1.56633 -2.89983,2.81517 -5.0165,3.7465 -2.07433,0.889 -4.445,1.3335 -7.112,1.3335 z m 32.63895,-0.0635 c -3.38667,0 -5.969,-0.78317 -7.747,-2.3495 -1.73567,-1.56633 -2.6035,-3.85233 -2.6035,-6.858 v -17.78 h -6.858 v -6.2865 h 6.858 v -8.3185 l 7.4295,-1.7145 v 10.033 h 9.4615 v 6.2865 h -9.4615 v 16.1925 c 0,1.60867 0.33867,2.75167 1.016,3.429 0.71967,0.67733 1.92617,1.016 3.6195,1.016 0.889,0 1.67217,-0.0635 2.3495,-0.1905 0.71967,-0.127 1.48167,-0.3175 2.286,-0.5715 v 6.1595 c -0.84667,0.29633 -1.88383,0.52917 -3.1115,0.6985 -1.22767,0.16933 -2.30717,0.254 -3.2385,0.254 z m 11.74752,-0.5715 v -32.7025 h 7.4295 v 32.7025 z m 24.95548,0.5715 c -2.32833,0 -4.40267,-0.42333 -6.223,-1.27 -1.778,-0.84667 -3.175,-2.01083 -4.191,-3.4925 -1.016,-1.524 -1.524,-3.25967 -1.524,-5.207 0,-3.13267 1.16417,-5.56683 3.4925,-7.3025 2.37067,-1.73567 5.60917,-2.6035 9.7155,-2.6035 3.048,0 5.88433,0.508 8.509,1.524 v -2.921 c 0,-2.11667 -0.635,-3.70417 -1.905,-4.7625 -1.22767,-1.05833 -3.06917,-1.5875 -5.5245,-1.5875 -1.43933,0 -2.96333,0.21167 -4.572,0.635 -1.60867,0.42333 -3.45017,1.12183 -5.5245,2.0955 l -2.667,-5.588 c 2.49767,-1.143 4.86833,-1.98967 7.112,-2.54 2.24367,-0.59267 4.5085,-0.889 6.7945,-0.889 4.318,0 7.66233,1.03717 10.033,3.1115 2.37067,2.07433 3.556,4.99533 3.556,8.763 v 21.463 h -7.3025 v -2.6035 c -1.397,1.10067 -2.89983,1.905 -4.5085,2.413 -1.60867,0.508 -3.3655,0.762 -5.2705,0.762 z m -4.8895,-10.16 c 0,1.43933 0.61383,2.6035 1.8415,3.4925 1.22767,0.84667 2.8575,1.27 4.8895,1.27 1.56633,0 3.00567,-0.21167 4.318,-0.635 1.35467,-0.46567 2.56117,-1.143 3.6195,-2.032 v -5.207 c -1.143,-0.55033 -2.3495,-0.9525 -3.6195,-1.2065 -1.22767,-0.29633 -2.58233,-0.4445 -4.064,-0.4445 -2.159,0 -3.8735,0.42333 -5.1435,1.27 -1.22767,0.84667 -1.8415,2.01083 -1.8415,3.4925 z m 29.01945,9.5885 v -44.45 l 7.4295,-1.3335 v 45.7835 z"
     id="text1"
     aria-label="Celestial"
     sodipodi:nodetypes="scccscccsccccsscccscccscccccssccsscsccsccscscccssccscsccccccccsccsscsccsccscscccssccscscccsscccscsscccscssccccscsccccsccsscsccccccccccscscccsscccccsccscscscsscccssscccssscsccccscsccccc" />
  <path
     sodipodi:type="star"
     style="fill:url(#linearGradient5);stroke-width:0.264583"
     id="path1-6"
     inkscape:flatsided="false"
     sodipodi:sides="5"
     sodipodi:cx="142.875"
     sodipodi:cy="142.875"
     sodipodi:r1="145.26054"
     sodipodi:r2="79.893295"
     sodipodi:arg1="0.94510898"
     sodipodi:arg2="1.5734275"
     inkscape:rounded="0.165"
     inkscape:randomized="0"
     d="m 227.9475,260.6175 c -12.47878,9.01629 -69.88753,-37.80897 -85.28271,-37.84948 -15.39519,-0.0405 -73.049556,46.482 -85.480712,37.40017 -12.431155,-9.08184 14.362035,-78.15061 9.643187,-92.80481 C 62.108416,152.70917 0.04670137,112.25285 4.8425998,97.623678 9.6384982,82.994506 83.606352,87.132921 96.085128,78.11663 108.5639,69.100339 127.86202,-2.4255485 143.25721,-2.385041 c 15.39518,0.040508 34.31664,71.666958 46.74779,80.748791 12.43116,9.081834 86.41977,5.332721 91.13862,19.986929 4.71885,14.654211 -57.5549,54.783371 -62.3508,69.412541 -4.7959,14.62918 21.63345,83.83799 9.15468,92.85428 z"
     inkscape:transform-center-x="0.5122413"
     inkscape:transform-center-y="-0.31703668"
     transform="matrix(0.05576999,-0.0075002,0.00787944,0.05858996,205.39542,234.95955)" />
</svg>
