<?xml version="1.0" encoding="UTF-8" standalone="no"?>
<!-- Created with Inkscape (http://www.inkscape.org/) -->

<svg
   width="3779.5276"
   height="796.1582"
   viewBox="0 0 999.99997 210.65019"
   version="1.1"
   id="svg1"
   inkscape:version="1.4.2 (ebf0e940d0, 2025-05-08)"
   sodipodi:docname="Celestial-text.svg"
   inkscape:export-filename="Celestial-text.png"
   inkscape:export-xdpi="96"
   inkscape:export-ydpi="96"
   xmlns:inkscape="http://www.inkscape.org/namespaces/inkscape"
   xmlns:sodipodi="http://sodipodi.sourceforge.net/DTD/sodipodi-0.dtd"
   xmlns:xlink="http://www.w3.org/1999/xlink"
   xmlns="http://www.w3.org/2000/svg"
   xmlns:svg="http://www.w3.org/2000/svg">
  <sodipodi:namedview
     id="namedview1"
     pagecolor="#ffffff"
     bordercolor="#000000"
     borderopacity="0.25"
     inkscape:showpageshadow="2"
     inkscape:pageopacity="0.0"
     inkscape:pagecheckerboard="0"
     inkscape:deskcolor="#d1d1d1"
     inkscape:document-units="mm"
     inkscape:zoom="0.50394254"
     inkscape:cx="1844.4563"
     inkscape:cy="365.12099"
     inkscape:window-width="1920"
     inkscape:window-height="1011"
     inkscape:window-x="0"
     inkscape:window-y="0"
     inkscape:window-maximized="1"
     inkscape:current-layer="layer1" />
  <defs
     id="defs1">
    <inkscape:path-effect
       effect="spiro"
       id="path-effect3"
       is_visible="true"
       lpeversion="1" />
    <inkscape:path-effect
       effect="spiro"
       id="path-effect2"
       is_visible="true"
       lpeversion="1" />
    <linearGradient
       id="linearGradient1"
       inkscape:collect="always">
      <stop
         style="stop-color:#ffe066;stop-opacity:1;"
         offset="0"
         id="stop1" />
      <stop
         style="stop-color:#e5b700;stop-opacity:1;"
         offset="1"
         id="stop2" />
    </linearGradient>
    <linearGradient
       inkscape:collect="always"
       xlink:href="#linearGradient1"
       id="linearGradient5"
       gradientUnits="userSpaceOnUse"
       x1="4.8425999"
       y1="129.11623"
       x2="281.14362"
       y2="129.11623" />
  </defs>
  <g
     inkscape:label="Layer 1"
     inkscape:groupmode="layer"
     id="layer1"
     transform="translate(476.02698,-32.657767)" />
  <path
     style="font-weight:bold;font-size:63.5px;font-family:'Red Hat Display';-inkscape-font-specification:'Red Hat Display Bold';fill:#000089;stroke-width:1.07167"
     d="m 94.90745,210.65019 c -13.37449,0 -25.80591,-2.31482 -37.29426,-6.94445 C 46.12485,198.90465 36.00824,192.30311 27.26339,183.9012 18.68999,175.3278 12.00275,165.46842 7.20165,154.323 2.40055,143.00612 0,130.83189 0,117.80035 0,104.76881 2.40055,92.680333 7.20165,81.534913 c 4.8011,-11.31689 11.48834,-21.17631 20.06174,-29.57822 8.74485,-8.5734 18.86146,-15.1749 30.3498,-19.80453 11.65982,-4.80109 24.09123,-7.20165 37.29426,-7.20165 9.6022,0 18.94719,1.28601 28.03499,3.85803 9.25926,2.57201 17.74692,6.25859 25.46297,11.05967 7.88752,4.80109 14.6605,10.63102 20.31894,17.48972 l -21.34774,21.34776 c -6.68725,-8.05902 -14.57477,-14.146115 -23.66257,-18.26134 -9.08779,-4.11523 -18.68999,-6.17284 -28.80659,-6.17284 -8.91633,0 -17.14679,1.62896 -24.69137,4.88683 -7.54459,3.086415 -14.1461,7.544595 -19.80454,13.3745 -5.65844,5.65844 -10.1166,12.34569 -13.37449,20.06174 -3.08642,7.716047 -4.62963,16.117957 -4.62963,25.205767 0,8.91632 1.54321,17.23252 4.62963,24.94857 3.25789,7.71606 7.71605,14.48905 13.37449,20.31894 5.82991,5.65844 12.60289,10.11662 20.31894,13.37449 7.71605,3.08642 16.11798,4.62963 25.20578,4.62963 9.94513,0 19.29013,-1.97186 28.03499,-5.91564 8.91632,-4.11522 16.54664,-9.94512 22.89095,-17.48972 l 20.83334,20.83335 c -5.65843,6.51579 -12.43141,12.25993 -20.31893,17.23251 -7.71606,4.80109 -16.11798,8.48766 -25.20578,11.05968 -8.91632,2.57202 -18.00412,3.85803 -27.26338,3.85803 z m 154.83557,-0.51441 c -13.20302,0 -25.12004,-3.00067 -35.75104,-9.00206 -10.45954,-6.00139 -18.86147,-14.1461 -25.20577,-24.43417 -6.17285,-10.45952 -9.25927,-22.11935 -9.25927,-34.97943 0,-12.86009 3.00069,-24.43417 9.00206,-34.72224 6.00138,-10.288067 14.06037,-18.432777 24.17697,-24.434167 10.1166,-6.17284 21.43348,-9.25926 33.95063,-9.25926 12.51715,0 23.57683,3.08642 33.17903,9.25926 9.77366,6.17284 17.48972,14.57475 23.14815,25.205767 5.65844,10.45953 8.48766,22.37656 8.48766,35.75105 v 7.97325 H 210.13395 c 1.37175,6.51579 3.94376,12.25994 7.71605,17.23252 3.77229,4.97258 8.5734,8.91631 14.4033,11.83128 5.82991,2.74347 12.08848,4.11523 18.77573,4.11523 6.17284,0 12.00275,-0.94306 17.48972,-2.82922 5.65844,-1.88616 10.3738,-4.62963 14.1461,-8.23046 l 19.54733,18.51853 c -7.88752,6.17284 -16.03225,10.71673 -24.43417,13.63169 -8.40192,2.91497 -17.74692,4.37243 -28.03499,4.37243 z m -39.86627,-80.50415 h 71.75929 c -1.20028,-6.17284 -3.51509,-11.57408 -6.94445,-16.20371 -3.42936,-4.62963 -7.63032,-8.23045 -12.60288,-10.80247 -4.8011,-2.743467 -10.11661,-4.115227 -15.94651,-4.115227 -6.00138,0 -11.57408,1.28601 -16.71812,3.858027 -4.97257,2.57201 -9.17353,6.17284 -12.60288,10.80247 -3.25789,4.62963 -5.57271,10.11662 -6.94445,16.46091 z m 124.74297,78.18934 V 27.779733 l 30.0926,-5.40124 V 207.82097 Z m 123.19951,2.31481 c -13.20303,0 -25.12002,-3.00067 -35.75104,-9.00206 -10.45952,-6.00139 -18.86147,-14.1461 -25.20577,-24.43417 -6.17284,-10.45952 -9.25926,-22.11935 -9.25926,-34.97943 0,-12.86009 3.00067,-24.43417 9.00206,-34.72224 6.00139,-10.288067 14.06035,-18.432777 24.17696,-24.434167 10.11662,-6.17284 21.4335,-9.25926 33.95063,-9.25926 12.51714,0 23.57682,3.08642 33.17903,9.25926 9.77367,6.17284 17.48972,14.57475 23.14816,25.205767 5.65844,10.45953 8.48766,22.37656 8.48766,35.75105 v 7.97325 h -101.3375 c 1.37176,6.51579 3.94378,12.25994 7.71606,17.23252 3.77228,4.97258 8.5734,8.91631 14.4033,11.83128 5.82989,2.74347 12.08848,4.11523 18.77572,4.11523 6.17285,0 12.00274,-0.94306 17.48972,-2.82922 5.65844,-1.88616 10.37382,-4.62963 14.1461,-8.23046 l 19.54733,18.51853 c -7.8875,6.17284 -16.03225,10.71673 -24.43416,13.63169 -8.40191,2.91497 -17.74693,4.37243 -28.035,4.37243 z m -39.86627,-80.50415 h 71.75929 c -1.20026,-6.17284 -3.51508,-11.57408 -6.94445,-16.20371 -3.42937,-4.62963 -7.6303,-8.23045 -12.60288,-10.80247 -4.80109,-2.743467 -10.11662,-4.115227 -15.94651,-4.115227 -6.00139,0 -11.57408,1.28601 -16.71811,3.858027 -4.97258,2.57201 -9.17352,6.17284 -12.60289,10.80247 -3.25788,4.62963 -5.57269,10.11662 -6.94445,16.46091 z m 173.35386,80.76135 c -11.83128,0 -22.80521,-1.62895 -32.92182,-4.88683 -10.11662,-3.25788 -18.86148,-7.97325 -26.23458,-14.1461 l 15.4321,-20.06173 c 7.37311,5.48698 14.57476,9.60221 21.60495,12.34568 7.20165,2.57202 14.4033,3.85803 21.60495,3.85803 8.5734,0 15.51785,-1.54321 20.83334,-4.62963 5.31549,-3.25788 7.97326,-7.45885 7.97326,-12.60289 0,-4.11523 -1.54322,-7.3731 -4.62964,-9.77367 -3.08642,-2.40056 -7.8875,-4.11522 -14.40329,-5.14403 l -24.69137,-3.60083 c -13.20304,-1.88616 -23.14816,-6.00138 -29.83541,-12.34568 -6.68724,-6.51579 -10.03086,-15.00345 -10.03086,-25.46297 0,-8.23046 2.14336,-15.346357 6.43004,-21.347747 4.45818,-6.17284 10.71673,-10.97393 18.77573,-14.4033 8.059,-3.42937 17.48972,-5.14403 28.29219,-5.14403 9.60221,0 18.86148,1.37175 27.77779,4.11523 9.08781,2.74347 17.66117,6.94444 25.72017,12.60288 l -14.6605,19.804537 c -7.3731,-4.62964 -14.40329,-7.97326 -21.09054,-10.030867 -6.68724,-2.22907 -13.46024,-3.34362 -20.31894,-3.34362 -7.20165,0 -13.03154,1.45746 -17.48972,4.372427 -4.28668,2.74347 -6.43004,6.51579 -6.43004,11.31687 0,4.28668 1.54321,7.63031 4.62963,10.03087 3.08642,2.22907 8.23046,3.85803 15.43211,4.88683 l 24.43416,3.60083 c 13.20304,1.71466 23.23391,5.82989 30.09261,12.34568 6.8587,6.3443 10.28807,14.6605 10.28807,24.94857 0,8.23046 -2.48627,15.60356 -7.45885,22.11935 -4.97258,6.3443 -11.74554,11.40263 -20.31894,15.17491 -8.40191,3.60082 -18.00412,5.40123 -28.8066,5.40123 z m 132.2015,-0.2572 c -13.71744,0 -24.17696,-3.17217 -31.37861,-9.51646 -7.0302,-6.3443 -10.54527,-15.60356 -10.54527,-27.77779 V 100.82504 H 653.80665 V 75.362063 h 27.77779 v -33.69344 l 30.0926,-6.94444 v 40.63788 h 38.32306 v 25.462977 h -38.32306 v 65.58644 c 0,6.51579 1.37176,11.14543 4.11523,13.8889 2.91496,2.74347 7.8018,4.11523 14.6605,4.11523 3.60082,0 6.77299,-0.25721 9.51646,-0.77161 2.91497,-0.5144 6.00139,-1.28601 9.25927,-2.31481 v 24.94857 c -3.42937,1.20026 -7.63031,2.14336 -12.60289,2.82921 -4.97258,0.68586 -9.34501,1.02881 -13.11729,1.02881 z m 47.58241,-2.31481 V 75.362063 h 30.0926 V 207.82097 Z m 101.0802,2.31481 c -9.43071,0 -17.83266,-1.71466 -25.20577,-5.14403 -7.20165,-3.42937 -12.86009,-8.14471 -16.97531,-14.1461 -4.11523,-6.17284 -6.17285,-13.20304 -6.17285,-21.09054 0,-12.68864 4.71538,-22.54801 14.1461,-29.57821 9.60221,-7.03019 22.7195,-10.54527 39.35187,-10.54527 12.34568,0 23.83401,2.05762 34.46503,6.17285 v -11.83129 c 0,-8.5734 -2.57201,-15.00344 -7.71605,-19.29013 -4.97258,-4.28668 -12.43143,-6.430037 -22.37655,-6.430037 -5.82989,0 -12.00274,0.85735 -18.51853,2.572017 -6.51579,1.71466 -13.97464,4.54388 -22.37655,8.48765 L 829.98985,86.678943 c 10.11661,-4.62963 19.71878,-8.059 28.80659,-10.28807 9.08781,-2.40056 18.26133,-3.60082 27.52059,-3.60082 17.48972,0 31.03566,4.20097 40.63788,12.60288 9.60221,8.40191 14.40329,20.233187 14.40329,35.493837 v 86.9342 H 911.78 v -10.54528 c -5.65844,4.45818 -11.74553,7.71606 -18.26132,9.77367 -6.51579,2.05761 -13.63169,3.08642 -21.34775,3.08642 z M 852.3664,168.9835 c 0,5.82989 2.48627,10.54527 7.45885,14.1461 4.97258,3.42937 11.57408,5.14403 19.80453,5.14403 6.3443,0 12.17423,-0.85735 17.48972,-2.57201 5.48699,-1.88616 10.37382,-4.62964 14.6605,-8.23046 v -21.09054 c -4.62963,-2.22907 -9.51646,-3.85803 -14.6605,-4.88684 -4.97258,-1.20026 -10.45952,-1.80041 -16.46091,-1.80041 -8.74486,0 -15.68931,1.71466 -20.83334,5.14403 -4.97258,3.42938 -7.45885,8.14471 -7.45885,14.1461 z m 117.541,38.83747 V 27.779733 L 1000,22.378493 V 207.82097 Z"
     id="text1"
     aria-label="Celestial"
     sodipodi:nodetypes="scccscccsccccsscccscccscccccssccsscsccsccscscccssccscsccccccccsccsscsccsccscscccssccscscccsscccscsscccscssccccscsccccsccsscsccccccccccscscccsscccccsccscscscsscccssscccssscsccccscsccccc" />
  <path
     sodipodi:type="star"
     style="fill:url(#linearGradient5);stroke-width:0.264583"
     id="path1-6"
     inkscape:flatsided="false"
     sodipodi:sides="5"
     sodipodi:cx="142.875"
     sodipodi:cy="142.875"
     sodipodi:r1="145.26054"
     sodipodi:r2="79.893295"
     sodipodi:arg1="0.94510898"
     sodipodi:arg2="1.5734275"
     inkscape:rounded="0.165"
     inkscape:randomized="0"
     d="m 227.9475,260.6175 c -12.47878,9.01629 -69.88753,-37.80897 -85.28271,-37.84948 -15.39519,-0.0405 -73.049556,46.482 -85.480712,37.40017 -12.431155,-9.08184 14.362035,-78.15061 9.643187,-92.80481 C 62.108416,152.70917 0.04670137,112.25285 4.8425998,97.623678 9.6384982,82.994506 83.606352,87.132921 96.085128,78.11663 108.5639,69.100339 127.86202,-2.4255485 143.25721,-2.385041 c 15.39518,0.040508 34.31664,71.666958 46.74779,80.748791 12.43116,9.081834 86.41977,5.332721 91.13862,19.986929 4.71885,14.654211 -57.5549,54.783371 -62.3508,69.412541 -4.7959,14.62918 21.63345,83.83799 9.15468,92.85428 z"
     inkscape:transform-center-x="2.0747928"
     inkscape:transform-center-y="-1.2841366"
     transform="matrix(0.22589196,-0.03037897,0.03191505,0.23731402,748.30342,4.9274129)" />
</svg>
