<?xml version="1.0" encoding="UTF-8" standalone="no"?>
<!-- Created with Inkscape (http://www.inkscape.org/) -->

<svg
   width="4800"
   height="896.18738"
   viewBox="0 0 1270 237.11624"
   version="1.1"
   id="svg1"
   inkscape:version="1.4.2 (ebf0e940d0, 2025-05-08)"
   sodipodi:docname="Celestial-side.svg"
   inkscape:export-filename="Celestial-full.png"
   inkscape:export-xdpi="96"
   inkscape:export-ydpi="96"
   xmlns:inkscape="http://www.inkscape.org/namespaces/inkscape"
   xmlns:sodipodi="http://sodipodi.sourceforge.net/DTD/sodipodi-0.dtd"
   xmlns:xlink="http://www.w3.org/1999/xlink"
   xmlns="http://www.w3.org/2000/svg"
   xmlns:svg="http://www.w3.org/2000/svg">
  <sodipodi:namedview
     id="namedview1"
     pagecolor="#ffffff"
     bordercolor="#000000"
     borderopacity="0.25"
     inkscape:showpageshadow="2"
     inkscape:pageopacity="0.0"
     inkscape:pagecheckerboard="0"
     inkscape:deskcolor="#d1d1d1"
     inkscape:document-units="mm"
     inkscape:zoom="0.50394254"
     inkscape:cx="1487.2727"
     inkscape:cy="375.04276"
     inkscape:window-width="1920"
     inkscape:window-height="1011"
     inkscape:window-x="0"
     inkscape:window-y="0"
     inkscape:window-maximized="1"
     inkscape:current-layer="svg1" />
  <defs
     id="defs1">
    <linearGradient
       id="linearGradient3"
       inkscape:collect="always">
      <stop
         style="stop-color:#000099;stop-opacity:1;"
         offset="0"
         id="stop3" />
      <stop
         style="stop-color:#6666ff;stop-opacity:1;"
         offset="1"
         id="stop4" />
    </linearGradient>
    <inkscape:path-effect
       effect="spiro"
       id="path-effect3"
       is_visible="true"
       lpeversion="1" />
    <inkscape:path-effect
       effect="spiro"
       id="path-effect2"
       is_visible="true"
       lpeversion="1" />
    <linearGradient
       id="linearGradient1"
       inkscape:collect="always">
      <stop
         style="stop-color:#ffe066;stop-opacity:1;"
         offset="0"
         id="stop1" />
      <stop
         style="stop-color:#e5b700;stop-opacity:1;"
         offset="1"
         id="stop2" />
    </linearGradient>
    <linearGradient
       inkscape:collect="always"
       xlink:href="#linearGradient1"
       id="linearGradient2"
       x1="4.8425999"
       y1="129.11623"
       x2="281.14362"
       y2="129.11623"
       gradientUnits="userSpaceOnUse" />
    <linearGradient
       inkscape:collect="always"
       xlink:href="#linearGradient3"
       id="linearGradient4"
       x1="55.267727"
       y1="127.93693"
       x2="270.69543"
       y2="127.93693"
       gradientUnits="userSpaceOnUse" />
    <linearGradient
       inkscape:collect="always"
       xlink:href="#linearGradient1"
       id="linearGradient5"
       gradientUnits="userSpaceOnUse"
       x1="4.8425999"
       y1="129.11623"
       x2="281.14362"
       y2="129.11623" />
  </defs>
  <path
     style="opacity:1;fill:url(#linearGradient4);fill-opacity:1;stroke-width:0.264583"
     d="m 181.42965,136.57323 c -4.15798,-0.8202 -8.4728,-0.89416 -12.5109,-2.18073 -4.64763,-1.48078 -8.73595,-4.55877 -11.62046,-8.49231 -2.88452,-3.93354 -4.58032,-8.69271 -5.0514,-13.54773 -0.94217,-9.71004 3.00488,-19.468694 9.24816,-26.964961 5.38987,-6.471582 12.4265,-11.461474 20.04878,-15.043779 7.62228,-3.582306 15.8309,-5.796825 24.12997,-7.231222 17.9806,-3.107736 36.70051,-2.567077 54.2012,2.598751 0.97961,0.289159 1.95953,0.593552 2.97,0.7425 0.86037,0.126822 1.74028,0.139075 2.59875,0 1.49297,-0.241866 2.92406,-0.964484 3.91603,-2.106178 0.99196,-1.141693 1.512,-2.710306 1.28148,-4.205071 -0.16593,-1.075914 -0.69993,-2.068872 -1.37987,-2.919054 -0.67993,-0.850182 -1.50452,-1.571798 -2.33263,-2.278447 C 236.77631,29.215176 194.95774,17.600403 155.925,24.5025 132.00533,28.732177 109.22007,39.721792 91.49762,56.333702 73.775168,72.945612 61.262782,95.187137 56.957682,119.09335 c -2.745959,15.24831 -2.176341,31.11631 1.934526,46.05458 4.110867,14.93828 11.78134,28.9188 22.382952,40.21734 10.601611,11.29854 24.13445,19.87237 38.96396,24.35979 14.8295,4.48743 30.92496,4.84387 45.86606,0.74329 10.54328,-2.8936 20.54701,-8.02389 28.60082,-15.4178 8.05381,-7.39391 14.09166,-17.09999 16.5129,-27.76166 2.42124,-10.66167 1.09464,-22.24826 -4.25602,-31.78262 -5.35066,-9.53437 -14.80678,-16.81715 -25.53323,-18.93304 z"
     id="path2"
     inkscape:path-effect="#path-effect3"
     inkscape:original-d="m 181.42965,136.57323 c 2.56156,-31.07684 -8.46435,-1.20632 -12.5109,-2.18073 -4.04655,-0.97441 -5.1962,-32.79375 -7.4237,-49.005001 -2.2275,-16.211251 30.07082,-14.849999 44.17875,-22.275001 14.10794,-7.424999 35.88663,1.7325 54.2012,2.598751 18.31455,0.866251 2.10375,0.495001 2.97,0.7425 0.86625,0.247499 1.60875,0 2.59875,0 0.99,0 3.2175,-4.455001 5.19751,-6.311249 1.97998,-1.85625 -2.35128,-3.2175 -3.7125,-5.197501 C 265.5675,52.965 192.92625,34.65 155.925,24.5025 118.92375,14.355 89.875182,87.537104 56.957682,119.09335 c -32.917499,31.55625 72.960358,74.27597 109.147498,111.375 36.18715,37.09903 5.09321,-0.44307 15.32447,-93.89512 z"
     transform="matrix(0.97348032,0,0,0.97348032,-53.802043,-21.945618)" />
  <g
     inkscape:label="Layer 1"
     inkscape:groupmode="layer"
     id="layer1"
     transform="translate(300,-30)">
    <path
       sodipodi:type="star"
       style="opacity:1;fill:url(#linearGradient2);stroke-width:0.264583"
       id="path1"
       inkscape:flatsided="false"
       sodipodi:sides="5"
       sodipodi:cx="142.875"
       sodipodi:cy="142.875"
       sodipodi:r1="145.26054"
       sodipodi:r2="79.893295"
       sodipodi:arg1="0.94510898"
       sodipodi:arg2="1.5734275"
       inkscape:rounded="0.165"
       inkscape:randomized="0"
       d="m 227.9475,260.6175 c -12.47878,9.01629 -69.88753,-37.80897 -85.28271,-37.84948 -15.39519,-0.0405 -73.049556,46.482 -85.480712,37.40017 -12.431155,-9.08184 14.362035,-78.15061 9.643187,-92.80481 C 62.108416,152.70917 0.04670137,112.25285 4.8425998,97.623678 9.6384982,82.994506 83.606352,87.132921 96.085128,78.11663 108.5639,69.100339 127.86202,-2.4255485 143.25721,-2.385041 c 15.39518,0.040508 34.31664,71.666958 46.74779,80.748791 12.43116,9.081834 86.41977,5.332721 91.13862,19.986929 4.71885,14.654211 -57.5549,54.783371 -62.3508,69.412541 -4.7959,14.62918 21.63345,83.83799 9.15468,92.85428 z"
       inkscape:transform-center-x="5.2365152"
       inkscape:transform-center-y="-3.2409397"
       transform="matrix(0.57010937,-0.07667086,0.08054765,0.59893644,-243.78804,115.24898)" />
  </g>
  <path
     style="font-weight:bold;font-size:63.5px;font-family:'Red Hat Display';-inkscape-font-specification:'Red Hat Display Bold';fill:#000089;stroke-width:1.07167"
     d="m 364.90745,210.65018 c -13.37449,0 -25.80591,-2.31482 -37.29425,-6.94445 -11.48835,-4.80109 -21.60495,-11.40263 -30.34981,-19.80454 -8.57339,-8.5734 -15.26064,-18.43278 -20.06174,-29.5782 C 272.40055,143.00611 270,130.83188 270,117.80034 c 0,-13.03154 2.40055,-25.12002 7.20165,-36.26544 4.8011,-11.31688 11.48835,-21.176297 20.06174,-29.578207 8.74486,-8.5734 18.86146,-15.1749 30.34981,-19.80453 11.65981,-4.80109 24.09122,-7.20165 37.29425,-7.20165 9.6022,0 18.94719,1.28601 28.03499,3.85803 9.25926,2.57201 17.74692,6.25859 25.46297,11.05967 7.88752,4.80109 14.6605,10.63102 20.31894,17.48972 L 417.37661,78.70568 c -6.68725,-8.05901 -14.57477,-14.146098 -23.66257,-18.261327 -9.08779,-4.11523 -18.68999,-6.17284 -28.80659,-6.17284 -8.91633,0 -17.14678,1.62896 -24.69137,4.88683 -7.54458,3.08642 -14.14609,7.544599 -19.80453,13.374487 -5.65844,5.65844 -10.11661,12.34569 -13.37449,20.06174 -3.08643,7.71605 -4.62964,16.11796 -4.62964,25.20577 0,8.91632 1.54321,17.23252 4.62964,24.94857 3.25788,7.71606 7.71605,14.48905 13.37449,20.31894 5.8299,5.65844 12.60288,10.11662 20.31894,13.37449 7.71605,3.08642 16.11797,4.62963 25.20577,4.62963 9.94513,0 19.29013,-1.97186 28.03499,-5.91564 8.91632,-4.11522 16.54664,-9.94512 22.89095,-17.48972 l 20.83334,20.83335 c -5.65843,6.51579 -12.43141,12.25993 -20.31893,17.23251 -7.71606,4.80109 -16.11798,8.48766 -25.20578,11.05968 -8.91632,2.57202 -18.00412,3.85803 -27.26338,3.85803 z m 154.83557,-0.51441 c -13.20302,0 -25.12004,-3.00067 -35.75104,-9.00206 -10.45954,-6.00139 -18.86147,-14.1461 -25.20577,-24.43417 -6.17285,-10.45952 -9.25927,-22.11935 -9.25927,-34.97943 0,-12.86009 3.00069,-24.43417 9.00206,-34.72224 6.00138,-10.28807 14.06037,-18.43278 24.17697,-24.43417 10.1166,-6.17284 21.43348,-9.25926 33.95063,-9.25926 12.51715,0 23.57683,3.08642 33.17903,9.25926 9.77366,6.17284 17.48972,14.57475 23.14815,25.20577 5.65845,10.45953 8.48767,22.37656 8.48767,35.75105 v 7.97325 h -101.3375 c 1.37175,6.51579 3.94376,12.25994 7.71605,17.23252 3.77229,4.97258 8.5734,8.91631 14.4033,11.83128 5.82991,2.74347 12.08848,4.11523 18.77573,4.11523 6.17284,0 12.00275,-0.94306 17.48972,-2.82922 5.65844,-1.88616 10.3738,-4.62963 14.1461,-8.23046 l 19.54733,18.51853 c -7.88752,6.17284 -16.03225,10.71673 -24.43417,13.63169 -8.40192,2.91497 -17.74692,4.37243 -28.03499,4.37243 z m -39.86627,-80.50415 h 71.75929 c -1.20028,-6.17284 -3.51509,-11.57408 -6.94445,-16.20371 -3.42936,-4.62963 -7.63032,-8.23045 -12.60288,-10.80247 -4.8011,-2.74347 -10.11661,-4.11523 -15.94651,-4.11523 -6.00138,0 -11.57408,1.28601 -16.71812,3.85803 -4.97257,2.57201 -9.17353,6.17284 -12.60288,10.80247 -3.25789,4.62963 -5.57271,10.11662 -6.94445,16.46091 z m 124.74298,78.18934 V 27.779733 l 30.0926,-5.40124 V 207.82096 Z m 123.1995,2.31481 c -13.20303,0 -25.12001,-3.00067 -35.75103,-9.00206 -10.45952,-6.00139 -18.86147,-14.1461 -25.20577,-24.43417 -6.17284,-10.45952 -9.25926,-22.11935 -9.25926,-34.97943 0,-12.86009 3.00067,-24.43417 9.00206,-34.72224 6.00139,-10.28807 14.06035,-18.43278 24.17696,-24.43417 10.11662,-6.17284 21.4335,-9.25926 33.95062,-9.25926 12.51714,0 23.57682,3.08642 33.17903,9.25926 9.77367,6.17284 17.48972,14.57475 23.14816,25.20577 5.65844,10.45953 8.48766,22.37656 8.48766,35.75105 v 7.97325 H 688.21017 c 1.37176,6.51579 3.94378,12.25994 7.71606,17.23252 3.77228,4.97258 8.5734,8.91631 14.4033,11.83128 5.82988,2.74347 12.08847,4.11523 18.77571,4.11523 6.17285,0 12.00274,-0.94306 17.48972,-2.82922 5.65844,-1.88616 10.37382,-4.62963 14.1461,-8.23046 l 19.54733,18.51853 c -7.8875,6.17284 -16.03225,10.71673 -24.43416,13.63169 -8.40191,2.91497 -17.74693,4.37243 -28.035,4.37243 z m -39.86626,-80.50415 h 71.75928 c -1.20026,-6.17284 -3.51508,-11.57408 -6.94445,-16.20371 -3.42937,-4.62963 -7.6303,-8.23045 -12.60288,-10.80247 -4.80109,-2.74347 -10.11662,-4.11523 -15.94651,-4.11523 -6.00139,0 -11.57407,1.28601 -16.7181,3.85803 -4.97258,2.57201 -9.17352,6.17284 -12.60289,10.80247 -3.25788,4.62963 -5.57269,10.11662 -6.94445,16.46091 z m 173.35385,80.76135 c -11.83128,0 -22.80521,-1.62895 -32.92182,-4.88683 -10.11662,-3.25788 -18.86148,-7.97325 -26.23458,-14.1461 l 15.4321,-20.06173 c 7.37311,5.48698 14.57476,9.60221 21.60495,12.34568 7.20165,2.57202 14.4033,3.85803 21.60495,3.85803 8.5734,0 15.51785,-1.54321 20.83334,-4.62963 5.31549,-3.25788 7.97326,-7.45885 7.97326,-12.60289 0,-4.11523 -1.54322,-7.3731 -4.62964,-9.77367 -3.08642,-2.40056 -7.8875,-4.11522 -14.40329,-5.14403 l -24.69137,-3.60083 c -13.20304,-1.88616 -23.14816,-6.00138 -29.83541,-12.34568 -6.68724,-6.51579 -10.03086,-15.00345 -10.03086,-25.46297 0,-8.23046 2.14336,-15.34636 6.43004,-21.34775 4.45818,-6.17284 10.71673,-10.97393 18.77573,-14.4033 8.059,-3.42937 17.48972,-5.14403 28.29219,-5.14403 9.60221,0 18.86148,1.37175 27.77779,4.11523 9.08781,2.74347 17.66117,6.94444 25.72017,12.60288 l -14.6605,19.80454 c -7.3731,-4.62964 -14.40329,-7.97326 -21.09054,-10.03087 -6.68724,-2.22907 -13.46024,-3.34362 -20.31894,-3.34362 -7.20165,0 -13.03154,1.45746 -17.48972,4.37243 -4.28668,2.74347 -6.43004,6.51579 -6.43004,11.31687 0,4.28668 1.54321,7.63031 4.62963,10.03087 3.08642,2.22907 8.23046,3.85803 15.43211,4.88683 l 24.43416,3.60083 c 13.20304,1.71466 23.23391,5.82989 30.09261,12.34568 6.8587,6.3443 10.28807,14.6605 10.28807,24.94857 0,8.23046 -2.48627,15.60356 -7.45885,22.11935 -4.97258,6.3443 -11.74554,11.40263 -20.31894,15.17491 -8.40191,3.60082 -18.00412,5.40123 -28.8066,5.40123 z m 132.2015,-0.2572 c -13.71744,0 -24.17696,-3.17217 -31.37861,-9.51646 -7.0302,-6.3443 -10.54527,-15.60356 -10.54527,-27.77779 V 100.82503 H 923.80665 V 75.36205 h 27.77779 V 41.668623 l 30.0926,-6.94444 V 75.36205 h 38.32306 v 25.46298 h -38.32306 v 65.58644 c 0,6.51579 1.37176,11.14543 4.11523,13.8889 2.91496,2.74347 7.8018,4.11523 14.66053,4.11523 3.6008,0 6.773,-0.25721 9.5164,-0.77161 2.915,-0.5144 6.0014,-1.28601 9.2593,-2.31481 v 24.94857 c -3.4294,1.20026 -7.6303,2.14336 -12.6029,2.82921 -4.9726,0.68586 -9.345,1.02881 -13.11728,1.02881 z m 47.58238,-2.31481 V 75.36205 h 30.0926 v 132.45891 z m 101.0802,2.31481 c -9.4307,0 -17.8326,-1.71466 -25.2057,-5.14403 -7.2017,-3.42937 -12.8601,-8.14471 -16.9754,-14.1461 -4.1152,-6.17284 -6.1728,-13.20304 -6.1728,-21.09054 0,-12.68864 4.7154,-22.54801 14.1461,-29.57821 9.6022,-7.03019 22.7195,-10.54527 39.3519,-10.54527 12.3456,0 23.834,2.05762 34.465,6.17285 v -11.83129 c 0,-8.5734 -2.572,-15.00344 -7.7161,-19.29013 -4.9725,-4.28668 -12.4314,-6.43004 -22.3765,-6.43004 -5.8299,0 -12.0027,0.85735 -18.5185,2.57202 -6.5158,1.71466 -13.9747,4.54388 -22.3766,8.48765 l -10.8025,-22.63375 c 10.1167,-4.62963 19.7188,-8.059 28.8066,-10.28807 9.0878,-2.40056 18.2614,-3.60082 27.5206,-3.60082 17.4897,0 31.0357,4.20097 40.6379,12.60288 9.6022,8.40191 14.4033,20.23319 14.4033,35.49384 v 86.9342 H 1181.78 v -10.54528 c -5.6584,4.45818 -11.7455,7.71606 -18.2613,9.77367 -6.5158,2.05761 -13.6317,3.08642 -21.3478,3.08642 z m -19.8045,-41.15228 c 0,5.82989 2.4863,10.54527 7.4588,14.1461 4.9726,3.42937 11.5741,5.14403 19.8046,5.14403 6.3443,0 12.1742,-0.85735 17.4897,-2.57201 5.487,-1.88616 10.3738,-4.62964 14.6605,-8.23046 v -21.09054 c -4.6296,-2.22907 -9.5165,-3.85803 -14.6605,-4.88684 -4.9726,-1.20026 -10.4595,-1.80041 -16.4609,-1.80041 -8.7449,0 -15.6893,1.71466 -20.8334,5.14403 -4.9725,3.42938 -7.4588,8.14471 -7.4588,14.1461 z m 117.541,38.83747 V 27.779733 L 1270,22.378493 V 207.82096 Z"
     id="text1"
     aria-label="Celestial"
     sodipodi:nodetypes="scccscccsccccsscccscccscccccssccsscsccsccscscccssccscsccccccccsccsscsccsccscscccssccscscccsscccscsscccscssccccscsccccsccsscsccccccccccscscccsscccccsccscscscsscccssscccssscsccccscsccccc" />
  <path
     sodipodi:type="star"
     style="fill:url(#linearGradient5);stroke-width:0.264583"
     id="path1-6"
     inkscape:flatsided="false"
     sodipodi:sides="5"
     sodipodi:cx="142.875"
     sodipodi:cy="142.875"
     sodipodi:r1="145.26054"
     sodipodi:r2="79.893295"
     sodipodi:arg1="0.94510898"
     sodipodi:arg2="1.5734275"
     inkscape:rounded="0.165"
     inkscape:randomized="0"
     d="m 227.9475,260.6175 c -12.47878,9.01629 -69.88753,-37.80897 -85.28271,-37.84948 -15.39519,-0.0405 -73.049556,46.482 -85.480712,37.40017 -12.431155,-9.08184 14.362035,-78.15061 9.643187,-92.80481 C 62.108416,152.70917 0.04670137,112.25285 4.8425998,97.623678 9.6384982,82.994506 83.606352,87.132921 96.085128,78.11663 108.5639,69.100339 127.86202,-2.4255485 143.25721,-2.385041 c 15.39518,0.040508 34.31664,71.666958 46.74779,80.748791 12.43116,9.081834 86.41977,5.332721 91.13862,19.986929 4.71885,14.654211 -57.5549,54.783371 -62.3508,69.412541 -4.7959,14.62918 21.63345,83.83799 9.15468,92.85428 z"
     inkscape:transform-center-x="2.0747928"
     inkscape:transform-center-y="-1.2841366"
     transform="matrix(0.22589196,-0.03037897,0.03191505,0.23731402,1018.3034,4.927413)" />
</svg>
